<svg width="145" height="144" viewBox="0 0 145 144" fill="none" xmlns="http://www.w3.org/2000/svg">
<mask id="path-1-inside-1_6_1282" fill="white">
<path d="M71.4931 0.00178528C84.227 -0.0878754 96.757 3.20135 107.805 9.53403C118.853 15.8667 128.024 25.0162 134.382 36.0495C140.741 47.0828 144.059 59.605 143.999 72.3392C143.939 85.0733 140.503 97.5638 134.041 108.537L125.355 103.422C130.913 93.9848 133.868 83.2431 133.919 72.2917C133.971 61.3403 131.117 50.5712 125.649 41.0826C120.181 31.594 112.294 23.7254 102.792 18.2793C93.291 12.8332 82.5153 10.0044 71.564 10.0815L71.4931 0.00178528Z"/>
</mask>
<path d="M71.4931 0.00178528C84.227 -0.0878754 96.757 3.20135 107.805 9.53403C118.853 15.8667 128.024 25.0162 134.382 36.0495C140.741 47.0828 144.059 59.605 143.999 72.3392C143.939 85.0733 140.503 97.5638 134.041 108.537L125.355 103.422C130.913 93.9848 133.868 83.2431 133.919 72.2917C133.971 61.3403 131.117 50.5712 125.649 41.0826C120.181 31.594 112.294 23.7254 102.792 18.2793C93.291 12.8332 82.5153 10.0044 71.564 10.0815L71.4931 0.00178528Z" fill="#D0E1FF" stroke="#3B82F6" stroke-width="2" mask="url(#path-1-inside-1_6_1282)"/>
<path d="M133.272 109.811C125.031 123.166 112.652 133.463 98.019 139.134C83.3864 144.805 67.3015 145.54 52.2125 141.228L54.9828 131.536C67.9593 135.245 81.7923 134.613 94.3764 129.735C106.96 124.858 117.607 116.003 124.694 104.518L133.272 109.811Z" fill="#9C27B0"/>
<path d="M50.1941 140.619C31.9953 134.835 16.8393 122.059 8.06028 105.102L17.0118 100.467C24.5618 115.051 37.596 126.038 53.2469 131.012L50.1941 140.619Z" fill="#D81B60"/>
<mask id="path-4-inside-2_6_1282" fill="white">
<path d="M133.201 109.927C123.264 125.961 107.432 137.455 89.1085 141.938C70.7853 146.42 51.4348 143.533 35.2184 133.896C19.0021 124.259 7.21522 108.644 2.39268 90.4071C-2.42986 72.1704 0.0971363 52.7695 9.43022 36.3767L18.19 41.3639C10.1635 55.4618 7.99032 72.1466 12.1377 87.8301C16.2851 103.514 26.4218 116.943 40.3678 125.231C54.3139 133.518 70.9554 136.001 86.7133 132.147C102.471 128.292 116.087 118.407 124.633 104.617L133.201 109.927Z"/>
</mask>
<path d="M133.201 109.927C123.264 125.961 107.432 137.455 89.1085 141.938C70.7853 146.42 51.4348 143.533 35.2184 133.896C19.0021 124.259 7.21522 108.644 2.39268 90.4071C-2.42986 72.1704 0.0971363 52.7695 9.43022 36.3767L18.19 41.3639C10.1635 55.4618 7.99032 72.1466 12.1377 87.8301C16.2851 103.514 26.4218 116.943 40.3678 125.231C54.3139 133.518 70.9554 136.001 86.7133 132.147C102.471 128.292 116.087 118.407 124.633 104.617L133.201 109.927Z" fill="#DEF7F0" stroke="#00C48C" stroke-width="2" mask="url(#path-4-inside-2_6_1282)"/>
<mask id="path-5-inside-3_6_1282" fill="white">
<path d="M10.2295 35.008C16.4477 24.6246 25.1831 15.9762 35.6283 9.86227C46.0734 3.74831 57.8913 0.366028 69.9895 0.0280762L70.271 10.1041C59.8665 10.3948 49.7031 13.3035 40.7203 18.5616C31.7375 23.8196 24.225 31.2572 18.8774 40.1869L10.2295 35.008Z"/>
</mask>
<path d="M10.2295 35.008C16.4477 24.6246 25.1831 15.9762 35.6283 9.86227C46.0734 3.74831 57.8913 0.366028 69.9895 0.0280762L70.271 10.1041C59.8665 10.3948 49.7031 13.3035 40.7203 18.5616C31.7375 23.8196 24.225 31.2572 18.8774 40.1869L10.2295 35.008Z" fill="#EDF4FF" stroke="#D0E1FF" stroke-width="2" mask="url(#path-5-inside-3_6_1282)"/>
<path d="M72.6309 50.12C74.0309 50.12 75.2489 50.316 76.2849 50.708C77.3489 51.072 78.2309 51.562 78.9309 52.178C79.6309 52.794 80.1489 53.508 80.4849 54.32C80.8489 55.104 81.0309 55.93 81.0309 56.798C81.0309 58.114 80.6109 59.318 79.7709 60.41C78.9589 61.502 77.7409 62.37 76.1169 63.014C77.9089 63.714 79.2809 64.596 80.2329 65.66C81.2129 66.696 81.7029 68.054 81.7029 69.734C81.7029 70.966 81.4649 72.058 80.9889 73.01C80.5409 73.962 79.9109 74.76 79.0989 75.404C78.2869 76.048 77.3209 76.552 76.2009 76.916C75.0809 77.252 73.8489 77.42 72.5049 77.42C71.1889 77.42 69.9569 77.252 68.8089 76.916C67.6889 76.552 66.7089 76.062 65.8689 75.446C65.0569 74.802 64.4129 74.032 63.9369 73.136C63.4889 72.24 63.2649 71.232 63.2649 70.112C63.2649 68.376 63.7129 67.004 64.6089 65.996C65.5329 64.96 66.8769 64.078 68.6409 63.35C67.2689 62.706 66.1769 61.866 65.3649 60.83C64.5529 59.794 64.1469 58.604 64.1469 57.26C64.1469 56.336 64.3149 55.454 64.6509 54.614C65.0149 53.746 65.5469 52.976 66.2469 52.304C66.9749 51.632 67.8569 51.1 68.8929 50.708C69.9569 50.316 71.2029 50.12 72.6309 50.12ZM68.2629 57.008C68.2629 57.596 68.3749 58.128 68.5989 58.604C68.8509 59.08 69.1869 59.5 69.6069 59.864C70.0269 60.228 70.5029 60.55 71.0349 60.83C71.5669 61.11 72.1269 61.348 72.7149 61.544C73.8909 61.096 74.8709 60.508 75.6549 59.78C76.4669 59.024 76.8729 58.1 76.8729 57.008C76.8729 55.86 76.4529 54.964 75.6129 54.32C74.8009 53.648 73.7789 53.312 72.5469 53.312C71.1469 53.312 70.0829 53.69 69.3549 54.446C68.6269 55.174 68.2629 56.028 68.2629 57.008ZM72.2109 64.946C70.8669 65.394 69.7609 66.01 68.8929 66.794C68.0529 67.55 67.6329 68.614 67.6329 69.986C67.6329 71.134 68.0389 72.114 68.8509 72.926C69.6909 73.738 70.9369 74.144 72.5889 74.144C74.0729 74.144 75.2349 73.724 76.0749 72.884C76.9429 72.044 77.3769 71.064 77.3769 69.944C77.3769 68.628 76.8869 67.578 75.9069 66.794C74.9269 65.982 73.6949 65.366 72.2109 64.946Z" fill="#080E1A"/>
<path d="M36.5352 94H35.5332V86.3125H32.8379V85.4336H39.2188V86.3125H36.5352V94ZM45.9043 90.7773C45.9043 91.3047 45.8359 91.7754 45.6992 92.1895C45.5625 92.6035 45.3652 92.9531 45.1074 93.2383C44.8496 93.5234 44.5371 93.7422 44.1699 93.8945C43.8066 94.043 43.3945 94.1172 42.9336 94.1172C42.5039 94.1172 42.1094 94.043 41.75 93.8945C41.3945 93.7422 41.0859 93.5234 40.8242 93.2383C40.5664 92.9531 40.3652 92.6035 40.2207 92.1895C40.0801 91.7754 40.0098 91.3047 40.0098 90.7773C40.0098 90.0742 40.1289 89.4766 40.3672 88.9844C40.6055 88.4883 40.9453 88.1113 41.3867 87.8535C41.832 87.5918 42.3613 87.4609 42.9746 87.4609C43.5605 87.4609 44.0723 87.5918 44.5098 87.8535C44.9512 88.1152 45.293 88.4941 45.5352 88.9902C45.7812 89.4824 45.9043 90.0781 45.9043 90.7773ZM41.0176 90.7773C41.0176 91.293 41.0859 91.7402 41.2227 92.1191C41.3594 92.498 41.5703 92.791 41.8555 92.998C42.1406 93.2051 42.5078 93.3086 42.957 93.3086C43.4023 93.3086 43.7676 93.2051 44.0527 92.998C44.3418 92.791 44.5547 92.498 44.6914 92.1191C44.8281 91.7402 44.8965 91.293 44.8965 90.7773C44.8965 90.2656 44.8281 89.8242 44.6914 89.4531C44.5547 89.0781 44.3438 88.7891 44.0586 88.5859C43.7734 88.3828 43.4043 88.2812 42.9512 88.2812C42.2832 88.2812 41.793 88.502 41.4805 88.9434C41.1719 89.3848 41.0176 89.9961 41.0176 90.7773ZM49.6602 93.3203C49.8203 93.3203 49.9844 93.3066 50.1523 93.2793C50.3203 93.252 50.457 93.2188 50.5625 93.1797V93.9355C50.4492 93.9863 50.291 94.0293 50.0879 94.0645C49.8887 94.0996 49.6934 94.1172 49.502 94.1172C49.1621 94.1172 48.8535 94.0586 48.5762 93.9414C48.2988 93.8203 48.0762 93.6172 47.9082 93.332C47.7441 93.0469 47.6621 92.6523 47.6621 92.1484V88.3398H46.748V87.8652L47.668 87.4844L48.0547 86.0898H48.6406V87.5781H50.5215V88.3398H48.6406V92.1191C48.6406 92.5215 48.7324 92.8223 48.916 93.0215C49.1035 93.2207 49.3516 93.3203 49.6602 93.3203ZM54.2656 87.4727C55.0312 87.4727 55.5996 87.6445 55.9707 87.9883C56.3418 88.332 56.5273 88.8809 56.5273 89.6348V94H55.8184L55.6309 93.0508H55.584C55.4043 93.2852 55.2168 93.4824 55.0215 93.6426C54.8262 93.7988 54.5996 93.918 54.3418 94C54.0879 94.0781 53.7754 94.1172 53.4043 94.1172C53.0137 94.1172 52.666 94.0488 52.3613 93.9121C52.0605 93.7754 51.8223 93.5684 51.6465 93.291C51.4746 93.0137 51.3887 92.6621 51.3887 92.2363C51.3887 91.5957 51.6426 91.1035 52.1504 90.7598C52.6582 90.416 53.4316 90.2285 54.4707 90.1973L55.5781 90.1504V89.7578C55.5781 89.2031 55.459 88.8145 55.2207 88.5918C54.9824 88.3691 54.6465 88.2578 54.2129 88.2578C53.877 88.2578 53.5566 88.3066 53.252 88.4043C52.9473 88.502 52.6582 88.6172 52.3848 88.75L52.0859 88.0117C52.375 87.8633 52.707 87.7363 53.082 87.6309C53.457 87.5254 53.8516 87.4727 54.2656 87.4727ZM55.5664 90.8359L54.5879 90.877C53.7871 90.9082 53.2227 91.0391 52.8945 91.2695C52.5664 91.5 52.4023 91.8262 52.4023 92.248C52.4023 92.6152 52.5137 92.8867 52.7363 93.0625C52.959 93.2383 53.2539 93.3262 53.6211 93.3262C54.1914 93.3262 54.6582 93.168 55.0215 92.8516C55.3848 92.5352 55.5664 92.0605 55.5664 91.4277V90.8359ZM59.5098 94H58.5312V84.8828H59.5098V94ZM65.8262 94H64.8301V85.4336H69.5996V86.3125H65.8262V89.4531H69.3711V90.3262H65.8262V94ZM73.3555 87.4609C73.9023 87.4609 74.3711 87.582 74.7617 87.8242C75.1523 88.0664 75.4512 88.4062 75.6582 88.8438C75.8652 89.2773 75.9688 89.7852 75.9688 90.3672V90.9707H71.5332C71.5449 91.7246 71.7324 92.2988 72.0957 92.6934C72.459 93.0879 72.9707 93.2852 73.6309 93.2852C74.0371 93.2852 74.3965 93.248 74.709 93.1738C75.0215 93.0996 75.3457 92.9902 75.6816 92.8457V93.7012C75.3574 93.8457 75.0352 93.9512 74.7148 94.0176C74.3984 94.084 74.0234 94.1172 73.5898 94.1172C72.9727 94.1172 72.4336 93.9922 71.9727 93.7422C71.5156 93.4883 71.1602 93.1172 70.9062 92.6289C70.6523 92.1406 70.5254 91.543 70.5254 90.8359C70.5254 90.1445 70.6406 89.5469 70.8711 89.043C71.1055 88.5352 71.4336 88.1445 71.8555 87.8711C72.2812 87.5977 72.7812 87.4609 73.3555 87.4609ZM73.3438 88.2578C72.8242 88.2578 72.4102 88.4277 72.1016 88.7676C71.793 89.1074 71.6094 89.582 71.5508 90.1914H74.9492C74.9453 89.8086 74.8848 89.4727 74.7676 89.1836C74.6543 88.8906 74.4805 88.6641 74.2461 88.5039C74.0117 88.3398 73.7109 88.2578 73.3438 88.2578ZM80.0234 87.4727C80.7891 87.4727 81.3574 87.6445 81.7285 87.9883C82.0996 88.332 82.2852 88.8809 82.2852 89.6348V94H81.5762L81.3887 93.0508H81.3418C81.1621 93.2852 80.9746 93.4824 80.7793 93.6426C80.584 93.7988 80.3574 93.918 80.0996 94C79.8457 94.0781 79.5332 94.1172 79.1621 94.1172C78.7715 94.1172 78.4238 94.0488 78.1191 93.9121C77.8184 93.7754 77.5801 93.5684 77.4043 93.291C77.2324 93.0137 77.1465 92.6621 77.1465 92.2363C77.1465 91.5957 77.4004 91.1035 77.9082 90.7598C78.416 90.416 79.1895 90.2285 80.2285 90.1973L81.3359 90.1504V89.7578C81.3359 89.2031 81.2168 88.8145 80.9785 88.5918C80.7402 88.3691 80.4043 88.2578 79.9707 88.2578C79.6348 88.2578 79.3145 88.3066 79.0098 88.4043C78.7051 88.502 78.416 88.6172 78.1426 88.75L77.8438 88.0117C78.1328 87.8633 78.4648 87.7363 78.8398 87.6309C79.2148 87.5254 79.6094 87.4727 80.0234 87.4727ZM81.3242 90.8359L80.3457 90.877C79.5449 90.9082 78.9805 91.0391 78.6523 91.2695C78.3242 91.5 78.1602 91.8262 78.1602 92.248C78.1602 92.6152 78.2715 92.8867 78.4941 93.0625C78.7168 93.2383 79.0117 93.3262 79.3789 93.3262C79.9492 93.3262 80.416 93.168 80.7793 92.8516C81.1426 92.5352 81.3242 92.0605 81.3242 91.4277V90.8359ZM86.3633 93.3203C86.5234 93.3203 86.6875 93.3066 86.8555 93.2793C87.0234 93.252 87.1602 93.2188 87.2656 93.1797V93.9355C87.1523 93.9863 86.9941 94.0293 86.791 94.0645C86.5918 94.0996 86.3965 94.1172 86.2051 94.1172C85.8652 94.1172 85.5566 94.0586 85.2793 93.9414C85.002 93.8203 84.7793 93.6172 84.6113 93.332C84.4473 93.0469 84.3652 92.6523 84.3652 92.1484V88.3398H83.4512V87.8652L84.3711 87.4844L84.7578 86.0898H85.3438V87.5781H87.2246V88.3398H85.3438V92.1191C85.3438 92.5215 85.4355 92.8223 85.6191 93.0215C85.8066 93.2207 86.0547 93.3203 86.3633 93.3203ZM93.8691 87.5781V94H93.0723L92.9316 93.0977H92.8789C92.7461 93.3203 92.5742 93.5078 92.3633 93.6602C92.1523 93.8125 91.9141 93.9258 91.6484 94C91.3867 94.0781 91.1074 94.1172 90.8105 94.1172C90.3027 94.1172 89.877 94.0352 89.5332 93.8711C89.1895 93.707 88.9297 93.4531 88.7539 93.1094C88.582 92.7656 88.4961 92.3242 88.4961 91.7852V87.5781H89.4805V91.7148C89.4805 92.25 89.6016 92.6504 89.8438 92.916C90.0859 93.1777 90.4551 93.3086 90.9512 93.3086C91.4277 93.3086 91.8066 93.2188 92.0879 93.0391C92.373 92.8594 92.5781 92.5957 92.7031 92.248C92.8281 91.8965 92.8906 91.4668 92.8906 90.959V87.5781H93.8691ZM98.8438 87.4609C98.9727 87.4609 99.1074 87.4688 99.248 87.4844C99.3887 87.4961 99.5137 87.5137 99.623 87.5371L99.5 88.4395C99.3945 88.4121 99.2773 88.3906 99.1484 88.375C99.0195 88.3594 98.8984 88.3516 98.7852 88.3516C98.5273 88.3516 98.2832 88.4043 98.0527 88.5098C97.8262 88.6113 97.627 88.7598 97.4551 88.9551C97.2832 89.1465 97.1484 89.3789 97.0508 89.6523C96.9531 89.9219 96.9043 90.2227 96.9043 90.5547V94H95.9258V87.5781H96.7344L96.8398 88.7617H96.8809C97.0137 88.5234 97.1738 88.3066 97.3613 88.1113C97.5488 87.9121 97.7656 87.7539 98.0117 87.6367C98.2617 87.5195 98.5391 87.4609 98.8438 87.4609ZM103.309 87.4609C103.855 87.4609 104.324 87.582 104.715 87.8242C105.105 88.0664 105.404 88.4062 105.611 88.8438C105.818 89.2773 105.922 89.7852 105.922 90.3672V90.9707H101.486C101.498 91.7246 101.686 92.2988 102.049 92.6934C102.412 93.0879 102.924 93.2852 103.584 93.2852C103.99 93.2852 104.35 93.248 104.662 93.1738C104.975 93.0996 105.299 92.9902 105.635 92.8457V93.7012C105.311 93.8457 104.988 93.9512 104.668 94.0176C104.352 94.084 103.977 94.1172 103.543 94.1172C102.926 94.1172 102.387 93.9922 101.926 93.7422C101.469 93.4883 101.113 93.1172 100.859 92.6289C100.605 92.1406 100.479 91.543 100.479 90.8359C100.479 90.1445 100.594 89.5469 100.824 89.043C101.059 88.5352 101.387 88.1445 101.809 87.8711C102.234 87.5977 102.734 87.4609 103.309 87.4609ZM103.297 88.2578C102.777 88.2578 102.363 88.4277 102.055 88.7676C101.746 89.1074 101.562 89.582 101.504 90.1914H104.902C104.898 89.8086 104.838 89.4727 104.721 89.1836C104.607 88.8906 104.434 88.6641 104.199 88.5039C103.965 88.3398 103.664 88.2578 103.297 88.2578ZM111.729 92.2422C111.729 92.6523 111.625 92.998 111.418 93.2793C111.215 93.5566 110.922 93.7656 110.539 93.9062C110.16 94.0469 109.707 94.1172 109.18 94.1172C108.73 94.1172 108.342 94.082 108.014 94.0117C107.686 93.9414 107.398 93.8418 107.152 93.7129V92.8164C107.414 92.9453 107.727 93.0625 108.09 93.168C108.453 93.2734 108.824 93.3262 109.203 93.3262C109.758 93.3262 110.16 93.2363 110.41 93.0566C110.66 92.877 110.785 92.6328 110.785 92.3242C110.785 92.1484 110.734 91.9941 110.633 91.8613C110.535 91.7246 110.369 91.5938 110.135 91.4688C109.9 91.3398 109.576 91.1992 109.162 91.0469C108.752 90.8906 108.396 90.7363 108.096 90.584C107.799 90.4277 107.568 90.2383 107.404 90.0156C107.244 89.793 107.164 89.5039 107.164 89.1484C107.164 88.6055 107.383 88.1895 107.82 87.9004C108.262 87.6074 108.84 87.4609 109.555 87.4609C109.941 87.4609 110.303 87.5 110.639 87.5781C110.979 87.6523 111.295 87.7539 111.588 87.8828L111.26 88.6621C110.994 88.5488 110.711 88.4531 110.41 88.375C110.109 88.2969 109.803 88.2578 109.49 88.2578C109.041 88.2578 108.695 88.332 108.453 88.4805C108.215 88.6289 108.096 88.832 108.096 89.0898C108.096 89.2891 108.15 89.4531 108.26 89.582C108.373 89.7109 108.553 89.832 108.799 89.9453C109.045 90.0586 109.369 90.1914 109.771 90.3438C110.174 90.4922 110.521 90.6465 110.814 90.8066C111.107 90.9629 111.332 91.1543 111.488 91.3809C111.648 91.6035 111.729 91.8906 111.729 92.2422Z" fill="#6C7480"/>
</svg>
