<svg width="70" height="70" viewBox="0 0 70 70" fill="none" xmlns="http://www.w3.org/2000/svg">
<mask id="path-1-inside-1_1_637" fill="white">
<path d="M34.7536 0.000869751C40.9437 -0.042717 47.0347 1.55621 52.4052 4.6346C57.7758 7.71298 62.2339 12.1607 65.3248 17.5241C68.4157 22.8875 70.0288 28.9747 69.9996 35.1649C69.9705 41.3551 68.3 47.4268 65.1588 52.7609L60.9365 50.2743C63.638 45.6871 65.0746 40.4654 65.0997 35.1418C65.1247 29.8182 63.7375 24.5832 61.0793 19.9707C58.4211 15.3582 54.5872 11.5332 49.9685 8.88575C45.3498 6.23835 40.1116 4.86327 34.7881 4.90075L34.7536 0.000869751Z"/>
</mask>
<path d="M34.7536 0.000869751C40.9437 -0.042717 47.0347 1.55621 52.4052 4.6346C57.7758 7.71298 62.2339 12.1607 65.3248 17.5241C68.4157 22.8875 70.0288 28.9747 69.9996 35.1649C69.9705 41.3551 68.3 47.4268 65.1588 52.7609L60.9365 50.2743C63.638 45.6871 65.0746 40.4654 65.0997 35.1418C65.1247 29.8182 63.7375 24.5832 61.0793 19.9707C58.4211 15.3582 54.5872 11.5332 49.9685 8.88575C45.3498 6.23835 40.1116 4.86327 34.7881 4.90075L34.7536 0.000869751Z" fill="#D0E1FF" stroke="#3B82F6" mask="url(#path-1-inside-1_1_637)"/>
<mask id="path-2-inside-2_1_637" fill="white">
<path d="M64.7851 53.3806C60.7789 59.8726 54.7612 64.8779 47.6481 67.6347C40.535 70.3915 32.716 70.7488 25.3811 68.6523L26.7277 63.941C33.0358 65.744 39.7601 65.4367 45.8774 63.0659C51.9947 60.695 57.1698 56.3904 60.6152 50.8073L64.7851 53.3806Z"/>
</mask>
<path d="M64.7851 53.3806C60.7789 59.8726 54.7612 64.8779 47.6481 67.6347C40.535 70.3915 32.716 70.7488 25.3811 68.6523L26.7277 63.941C33.0358 65.744 39.7601 65.4367 45.8774 63.0659C51.9947 60.695 57.1698 56.3904 60.6152 50.8073L64.7851 53.3806Z" fill="#FEF2CF" stroke="#FBBC05" mask="url(#path-2-inside-2_1_637)"/>
<path d="M24.3999 68.3562C15.5533 65.5449 8.18579 59.3344 3.91819 51.091L8.26964 48.8383C11.9398 55.9276 18.2758 61.2686 25.8839 63.6864L24.3999 68.3562Z" fill="#D81B60"/>
<mask id="path-4-inside-3_1_637" fill="white">
<path d="M24.4504 68.3722C19.4804 66.8011 14.924 64.1397 11.1141 60.5825C7.30421 57.0253 4.33694 52.662 2.429 47.8113C0.521057 42.9606 -0.27937 37.7451 0.0861733 32.5455C0.451717 27.3459 1.974 22.2936 4.54185 17.7576L8.80599 20.1715C6.59764 24.0725 5.28848 28.4175 4.97411 32.8891C4.65974 37.3607 5.34811 41.8461 6.98894 46.0177C8.62977 50.1893 11.1816 53.9417 14.4581 57.001C17.7347 60.0602 21.6531 62.3489 25.9273 63.7001L24.4504 68.3722Z"/>
</mask>
<path d="M24.4504 68.3722C19.4804 66.8011 14.924 64.1397 11.1141 60.5825C7.30421 57.0253 4.33694 52.662 2.429 47.8113C0.521057 42.9606 -0.27937 37.7451 0.0861733 32.5455C0.451717 27.3459 1.974 22.2936 4.54185 17.7576L8.80599 20.1715C6.59764 24.0725 5.28848 28.4175 4.97411 32.8891C4.65974 37.3607 5.34811 41.8461 6.98894 46.0177C8.62977 50.1893 11.1816 53.9417 14.4581 57.001C17.7347 60.0602 21.6531 62.3489 25.9273 63.7001L24.4504 68.3722Z" fill="#DEF7F0" stroke="#00C48C" mask="url(#path-4-inside-3_1_637)"/>
<mask id="path-5-inside-4_1_637" fill="white">
<path d="M4.97267 17.0178C7.99542 11.9703 12.2418 7.76623 17.3193 4.79416C22.3968 1.82209 28.1416 0.177933 34.0227 0.013649L34.1595 4.91174C29.1018 5.05302 24.1612 6.467 19.7946 9.02298C15.4279 11.579 11.7761 15.1945 9.1765 19.5353L4.97267 17.0178Z"/>
</mask>
<path d="M4.97267 17.0178C7.99542 11.9703 12.2418 7.76623 17.3193 4.79416C22.3968 1.82209 28.1416 0.177933 34.0227 0.013649L34.1595 4.91174C29.1018 5.05302 24.1612 6.467 19.7946 9.02298C15.4279 11.579 11.7761 15.1945 9.1765 19.5353L4.97267 17.0178Z" fill="#FBCBC7" stroke="#EB4335" mask="url(#path-5-inside-4_1_637)"/>
</svg>
