<svg width="17" height="10" viewBox="0 0 17 10" fill="none" xmlns="http://www.w3.org/2000/svg">
<path d="M1.00024 7.06736H4.06064L5.05196 4.38903H5.45639L6.77157 8.00424H7.16959L9.21146 0.956299H9.71619L12.0067 8.00424H13.7695M16.0002 7.95995C16.0002 8.24741 15.886 8.5231 15.6828 8.72636C15.4795 8.92963 15.2038 9.04382 14.9164 9.04382C14.6289 9.04382 14.3532 8.92963 14.1499 8.72636C13.9467 8.5231 13.8325 8.24741 13.8325 7.95995C13.8325 7.67249 13.9467 7.39681 14.1499 7.19354C14.3532 6.99028 14.6289 6.87609 14.9164 6.87609C15.2038 6.87609 15.4795 6.99028 15.6828 7.19354C15.886 7.39681 16.0002 7.67249 16.0002 7.95995Z" stroke="#0A2656" stroke-width="0.5" stroke-linecap="round" stroke-linejoin="round"/>
</svg>
