<svg width="127" height="52" viewBox="0 0 127 52" fill="none" xmlns="http://www.w3.org/2000/svg">
<path d="M1.18634 47.2762H126" stroke="#E4E4E4" stroke-opacity="0.4" stroke-width="0.476388" stroke-linecap="square"/>
<path d="M1.18634 29.6497H126" stroke="#E4E4E4" stroke-opacity="0.4" stroke-width="0.476388" stroke-linecap="square"/>
<path d="M1.18634 12.0235H126" stroke="#E4E4E4" stroke-opacity="0.4" stroke-width="0.476388" stroke-linecap="square"/>
<path d="M1.18634 50.5644L12.5741 41.878C14.3211 40.5455 16.7529 40.5806 18.4607 41.9631L23.8169 46.2991C26.3816 48.3752 30.2292 47.2784 31.3136 44.162L42.4243 12.2318C43.8808 8.04614 49.7627 7.94294 51.3651 12.0749L57.9049 28.938C59.3128 32.5685 64.2452 33.0681 66.3525 29.7935L68.1176 27.0506C70.0819 23.9982 74.6018 24.1762 76.32 27.3735L79.3794 33.0666C80.0218 34.2619 81.1434 35.1266 82.4629 35.4436L90.4356 37.359C91.2634 37.5579 92.0228 37.975 92.6348 38.5669L103.713 49.2815C104.566 50.1069 105.697 50.5839 106.883 50.6191L119.807 51.0022" stroke="#00C48C" stroke-linejoin="round"/>
</svg>
