<svg width="120" height="44" viewBox="0 0 120 44" fill="none" xmlns="http://www.w3.org/2000/svg">
<path d="M1.18634 42.5644L12.5741 33.878C14.3211 32.5455 16.7529 32.5806 18.4607 33.9631L23.8169 38.2991C26.3816 40.3752 30.2292 39.2784 31.3136 36.162L42.4243 4.23178C43.8808 0.0461441 49.7627 -0.0570634 51.3651 4.0749L57.9049 20.938C59.3128 24.5685 64.2452 25.0681 66.3525 21.7935L68.1176 19.0506C70.0819 15.9982 74.6018 16.1762 76.32 19.3735L79.3794 25.0666C80.0218 26.2619 81.1434 27.1266 82.4629 27.4436L90.4356 29.359C91.2634 29.5579 92.0228 29.975 92.6348 30.5669L103.713 41.2815C104.566 42.1069 105.697 42.5839 106.883 42.6191L119.807 43.0022" stroke="#00C48C" stroke-linejoin="round"/>
</svg>
