<svg width="18" height="21" viewBox="0 0 18 21" fill="none" xmlns="http://www.w3.org/2000/svg">
<g clip-path="url(#clip0_1_846)">
<path d="M0.72 4.98118L8.12872 0.698962C8.57509 0.438616 9.11259 0.433771 9.56235 0.684429L9.58768 0.698962L16.9963 4.98118C17.4428 5.24159 17.7066 5.70298 17.7161 6.20387L17.7163 6.23176V14.7962C17.7163 15.2985 17.4606 15.7642 17.0209 16.032L16.9963 16.0467L9.56872 20.31C9.36035 20.4237 9.09502 20.4995 8.84872 20.4995C8.61308 20.4995 8.37744 20.4475 8.15848 20.3269L8.12872 20.31L0.720069 16.0278C0.292042 15.7859 0.010173 15.3064 0.000276817 14.8046L0 14.7772V6.23176C0 5.72941 0.273979 5.26367 0.696401 4.99585L0.72 4.98118ZM13.0172 6.72443H4.6991C4.62325 6.72443 4.54754 6.76228 4.49066 6.8191C4.43758 6.87218 4.41758 6.9582 4.41509 7.03107L4.41488 7.0465L4.60436 8.78976C4.62256 8.89917 4.71107 9.00865 4.83606 9.03349L4.85066 9.03599L7.18125 9.39606V11.6698L4.85066 12.0109C4.72291 12.0291 4.63038 12.1176 4.60678 12.2426L4.60436 12.2571L4.41488 14.0003C4.41488 14.0761 4.43377 14.1709 4.49066 14.2278C4.54367 14.2808 4.61329 14.3174 4.68394 14.322L4.6991 14.3225H13.0172C13.093 14.3225 13.1687 14.2846 13.2256 14.2277C13.2787 14.1747 13.2987 14.0886 13.3012 14.0158L13.3014 14.0003L13.1119 12.2571C13.0937 12.1477 13.0052 12.0382 12.8802 12.0134L12.8656 12.0109L10.535 11.6508V9.37709L12.8656 9.03599C12.9934 9.01779 13.0859 8.92927 13.1095 8.80429L13.1119 8.78976L13.3014 7.0465C13.3014 6.97073 13.2825 6.87599 13.2256 6.8191C13.1726 6.76609 13.103 6.72948 13.0323 6.72484L13.0172 6.72443ZM12.714 7.2928L12.5814 8.48657L10.2129 8.84651C10.0666 8.86484 9.97322 8.97142 9.9499 9.11522L9.94761 9.13073V11.8972C9.94761 12.0253 10.0362 12.1536 10.179 12.1791L12.5624 12.5414L12.6951 13.7352H5.02118L5.15384 12.5414L7.52228 12.1814C7.65052 12.163 7.76104 12.0562 7.76824 11.9122L7.76865 11.8972V9.13073C7.76865 9.00256 7.68007 8.87432 7.5373 8.84879L5.15384 8.4865L5.02118 7.2928H12.714Z" fill="#3177BC"/>
</g>
<defs>
<clipPath id="clip0_1_846">
<rect width="17.7163" height="20" fill="white" transform="translate(0 0.5)"/>
</clipPath>
</defs>
</svg>
