<svg width="184" height="34" viewBox="0 0 184 34" fill="none" xmlns="http://www.w3.org/2000/svg">
<path d="M9.04743 16.3065L14.8875 13.8559C15.0732 13.778 15.194 13.5962 15.194 13.3948V12.5M9.04743 16.3065V12.5M9.04743 16.3065L3.99999 14.1364M9.04743 12.5L3.99999 10.4545M9.04743 12.5L15.194 10.0455M3.99999 10.4545V14.1364M3.99999 10.4545L8.86421 8.0891C8.98167 8.03198 9.11682 8.02309 9.24075 8.06433L15.194 10.0455M3.99999 14.1364L11.6119 17.4091M3.99999 14.1364V22.2014C3.99999 22.3972 4.11419 22.5749 4.29223 22.6562L11.6119 26M15.194 10.0455V12.5M15.194 12.5L19 14.1364M19 14.1364V22.2054C19 22.3991 18.8882 22.5754 18.7129 22.6578L11.6119 26M19 14.1364L11.6119 17.4091M11.6119 26V17.4091" stroke="#3B82F6" stroke-linecap="round"/>
<path d="M26.696 21.5H25.2983L28.4389 12.7727H29.9602L33.1009 21.5H31.7031L29.2358 14.358H29.1676L26.696 21.5ZM26.9304 18.0824H31.4645V19.1903H26.9304V18.0824ZM35.053 17.6136V21.5H33.7789V14.9545H35.0019V16.0199H35.0829C35.2334 15.6733 35.4692 15.3949 35.7902 15.1847C36.1141 14.9744 36.5218 14.8693 37.0133 14.8693C37.4593 14.8693 37.8499 14.9631 38.1851 15.1506C38.5204 15.3352 38.7803 15.6108 38.965 15.9773C39.1496 16.3437 39.242 16.7969 39.242 17.3366V21.5H37.9678V17.4901C37.9678 17.0156 37.8442 16.6449 37.5971 16.3778C37.3499 16.108 37.0104 15.973 36.5786 15.973C36.2831 15.973 36.0204 16.0369 35.7902 16.1648C35.563 16.2926 35.3826 16.4801 35.2491 16.7273C35.1184 16.9716 35.053 17.267 35.053 17.6136ZM43.5262 14.9545V15.9773H39.9509V14.9545H43.5262ZM40.9097 13.3864H42.1838V19.5781C42.1838 19.8253 42.2208 20.0114 42.2946 20.1364C42.3685 20.2585 42.4637 20.3423 42.5801 20.3878C42.6995 20.4304 42.8287 20.4517 42.9679 20.4517C43.0702 20.4517 43.1597 20.4446 43.2364 20.4304C43.3131 20.4162 43.3727 20.4048 43.4154 20.3963L43.6455 21.4489C43.5716 21.4773 43.4665 21.5057 43.3301 21.5341C43.1938 21.5653 43.0233 21.5824 42.8188 21.5852C42.4835 21.5909 42.171 21.5313 41.8813 21.4062C41.5915 21.2812 41.3571 21.0881 41.1781 20.8267C40.9992 20.5653 40.9097 20.2372 40.9097 19.8423V13.3864ZM44.6985 21.5V12.7727H47.8945C48.5138 12.7727 49.0266 12.875 49.4329 13.0795C49.8391 13.2812 50.1431 13.5554 50.3448 13.902C50.5465 14.2457 50.6474 14.6335 50.6474 15.0653C50.6474 15.429 50.5806 15.7358 50.4471 15.9858C50.3136 16.233 50.1346 16.4318 49.9102 16.5824C49.6886 16.7301 49.4442 16.8381 49.1772 16.9062V16.9915C49.467 17.0057 49.7496 17.0994 50.0252 17.2727C50.3036 17.4432 50.5337 17.6861 50.7156 18.0014C50.8974 18.3168 50.9883 18.7003 50.9883 19.152C50.9883 19.598 50.8832 19.9986 50.6729 20.3537C50.4655 20.706 50.1445 20.9858 49.7099 21.1932C49.2752 21.3977 48.7198 21.5 48.0437 21.5H44.6985ZM46.0153 20.3707H47.9158C48.5465 20.3707 48.9982 20.2486 49.2709 20.0043C49.5437 19.7599 49.68 19.4545 49.68 19.0881C49.68 18.8125 49.6104 18.5597 49.4712 18.3295C49.332 18.0994 49.1332 17.9162 48.8746 17.7798C48.619 17.6435 48.315 17.5753 47.9627 17.5753H46.0153V20.3707ZM46.0153 16.5483H47.7795C48.0749 16.5483 48.3405 16.4915 48.5763 16.3778C48.815 16.2642 49.0039 16.1051 49.1431 15.9006C49.2852 15.6932 49.3562 15.4489 49.3562 15.1676C49.3562 14.8068 49.2298 14.5043 48.9769 14.2599C48.7241 14.0156 48.3363 13.8935 47.8136 13.8935H46.0153V16.5483ZM56.1141 18.7855V14.9545H57.3925V21.5H56.1397V20.3665H56.0715C55.9209 20.7159 55.6794 21.0071 55.3471 21.2401C55.0175 21.4702 54.607 21.5852 54.1155 21.5852C53.6951 21.5852 53.3229 21.4929 52.999 21.3082C52.678 21.1207 52.4252 20.8437 52.2405 20.4773C52.0587 20.1108 51.9678 19.6577 51.9678 19.1179V14.9545H53.2419V18.9645C53.2419 19.4105 53.3655 19.7656 53.6127 20.0298C53.8598 20.294 54.1809 20.4261 54.5758 20.4261C54.8144 20.4261 55.0516 20.3665 55.2874 20.2472C55.526 20.1278 55.7235 19.9474 55.8797 19.706C56.0388 19.4645 56.1169 19.1577 56.1141 18.7855ZM58.6245 21.5V14.9545H59.8987V21.5H58.6245ZM59.268 13.9446C59.0464 13.9446 58.8561 13.8707 58.697 13.723C58.5407 13.5724 58.4626 13.3935 58.4626 13.1861C58.4626 12.9758 58.5407 12.7969 58.697 12.6491C58.8561 12.4986 59.0464 12.4233 59.268 12.4233C59.4896 12.4233 59.6785 12.4986 59.8347 12.6491C59.9938 12.7969 60.0734 12.9758 60.0734 13.1861C60.0734 13.3935 59.9938 13.5724 59.8347 13.723C59.6785 13.8707 59.4896 13.9446 59.268 13.9446ZM62.4069 12.7727V21.5H61.1328V12.7727H62.4069ZM66.0914 21.6278C65.563 21.6278 65.0914 21.4929 64.6766 21.223C64.2647 20.9503 63.9408 20.5625 63.705 20.0597C63.472 19.554 63.3556 18.9474 63.3556 18.2401C63.3556 17.5327 63.4735 16.9276 63.7093 16.4247C63.9479 15.9219 64.2746 15.5369 64.6894 15.2699C65.1041 15.0028 65.5743 14.8693 66.0999 14.8693C66.5061 14.8693 66.8328 14.9375 67.08 15.0739C67.33 15.2074 67.5232 15.3636 67.6595 15.5426C67.7988 15.7216 67.9067 15.8793 67.9834 16.0156H68.0601V12.7727H69.3343V21.5H68.0899V20.4815H67.9834C67.9067 20.6207 67.7959 20.7798 67.651 20.9588C67.509 21.1378 67.313 21.294 67.063 21.4276C66.813 21.5611 66.4891 21.6278 66.0914 21.6278ZM66.3726 20.5412C66.7391 20.5412 67.0488 20.4446 67.3016 20.2514C67.5573 20.0554 67.7505 19.7841 67.8811 19.4375C68.0147 19.0909 68.0814 18.6875 68.0814 18.2273C68.0814 17.7727 68.0161 17.375 67.8854 17.0341C67.7547 16.6932 67.563 16.4276 67.3101 16.2372C67.0573 16.0469 66.7448 15.9517 66.3726 15.9517C65.9891 15.9517 65.6695 16.0511 65.4138 16.25C65.1581 16.4489 64.9649 16.7202 64.8343 17.0639C64.7064 17.4077 64.6425 17.7955 64.6425 18.2273C64.6425 18.6648 64.7078 19.0582 64.8385 19.4077C64.9692 19.7571 65.1624 20.0341 65.4181 20.2386C65.6766 20.4403 65.9948 20.5412 66.3726 20.5412ZM73.4938 21.6321C72.8489 21.6321 72.2935 21.4943 71.8276 21.2187C71.3646 20.9403 71.0066 20.5497 70.7538 20.0469C70.5038 19.5412 70.3788 18.9489 70.3788 18.2699C70.3788 17.5994 70.5038 17.0085 70.7538 16.4972C71.0066 15.9858 71.3589 15.5866 71.8106 15.2997C72.2651 15.0128 72.7964 14.8693 73.4043 14.8693C73.7737 14.8693 74.1316 14.9304 74.4782 15.0526C74.8248 15.1747 75.1359 15.3665 75.4114 15.6278C75.687 15.8892 75.9043 16.2287 76.0634 16.6463C76.2225 17.0611 76.3021 17.5653 76.3021 18.1591V18.6108H71.0989V17.6562H75.0535C75.0535 17.321 74.9853 17.0241 74.8489 16.7656C74.7126 16.5043 74.5208 16.2983 74.2737 16.1477C74.0293 15.9972 73.7424 15.9219 73.4129 15.9219C73.0549 15.9219 72.7424 16.0099 72.4754 16.1861C72.2112 16.3594 72.0066 16.5866 71.8617 16.8679C71.7197 17.1463 71.6487 17.4489 71.6487 17.7756V18.5213C71.6487 18.9588 71.7254 19.331 71.8788 19.6378C72.035 19.9446 72.2523 20.179 72.5308 20.3409C72.8092 20.5 73.1345 20.5795 73.5066 20.5795C73.7481 20.5795 73.9683 20.5455 74.1671 20.4773C74.366 20.4062 74.5379 20.3011 74.6827 20.1619C74.8276 20.0227 74.9384 19.8509 75.0151 19.6463L76.2211 19.8636C76.1245 20.2187 75.9512 20.5298 75.7012 20.7969C75.4541 21.0611 75.143 21.267 74.768 21.4148C74.3958 21.5597 73.9711 21.6321 73.4938 21.6321ZM77.2358 21.5V14.9545H78.4673V15.9943H78.5355C78.6548 15.642 78.865 15.3651 79.1662 15.1633C79.4701 14.9588 79.8139 14.8565 80.1974 14.8565C80.277 14.8565 80.3707 14.8594 80.4787 14.8651C80.5895 14.8707 80.6761 14.8778 80.7386 14.8864V16.1051C80.6875 16.0909 80.5966 16.0753 80.4659 16.0582C80.3352 16.0383 80.2045 16.0284 80.0738 16.0284C79.7727 16.0284 79.5042 16.0923 79.2684 16.2202C79.0355 16.3452 78.8508 16.5199 78.7145 16.7443C78.5781 16.9659 78.5099 17.2187 78.5099 17.5028V21.5H77.2358Z" fill="#3B82F6"/>
</svg>
