<svg width="14" height="17" viewBox="0 0 14 17" fill="none" xmlns="http://www.w3.org/2000/svg">
<g clip-path="url(#clip0_133_217)">
<path d="M12.997 3.76011L7.95728 0.767924C7.66326 0.592576 7.3273 0.5 6.98497 0.5C6.64263 0.5 6.30667 0.592576 6.01265 0.767924L0.971841 3.76011C0.673785 3.93991 0.427523 4.19403 0.257162 4.49758C0.0868 4.80113 -0.00182376 5.14371 -3.44689e-05 5.4918V11.4752C-0.00165033 11.8231 0.0870559 12.1655 0.257409 12.4688C0.427763 12.7722 0.673931 13.0261 0.971841 13.2059L6.01159 16.197C6.30565 16.3723 6.64161 16.4648 6.98393 16.4648C7.32626 16.4648 7.66222 16.3723 7.95628 16.197L12.996 13.2059C13.2943 13.0262 13.5407 12.7721 13.7113 12.4686C13.8818 12.165 13.9706 11.8224 13.9689 11.4742V5.4918C13.9707 5.14371 13.8821 4.80113 13.7117 4.49758C13.5413 4.19403 13.2951 3.93991 12.997 3.76011Z" fill="white"/>
<path d="M13.0257 3.76729L7.97484 0.768541C7.68017 0.592789 7.34345 0.5 7.00034 0.5C6.65723 0.5 6.32051 0.592789 6.02584 0.768541L0.973966 3.76729C0.675257 3.94749 0.428457 4.20217 0.257723 4.50638C0.0869891 4.8106 -0.00182801 5.15394 -3.43987e-05 5.50279V11.4994C-0.00165458 11.848 0.087245 12.1912 0.257971 12.4952C0.428696 12.7992 0.675403 13.0537 0.973966 13.2339L6.02484 16.2316C6.31954 16.4072 6.65624 16.5 6.99931 16.5C7.34238 16.5 7.67907 16.4072 7.97378 16.2316L13.0247 13.2339C13.3236 13.0538 13.5706 12.7991 13.7415 12.4949C13.9124 12.1907 14.0014 11.8472 13.9997 11.4983V5.50279C14.0015 5.15395 13.9126 4.81061 13.7419 4.5064C13.5712 4.20218 13.3244 3.9475 13.0257 3.76729ZM6.20184 15.9252L1.15097 12.9274C0.905578 12.7787 0.702847 12.569 0.562486 12.3188C0.422126 12.0685 0.348912 11.7862 0.349966 11.4993V5.50285C0.348825 5.21592 0.422002 4.93358 0.562372 4.68332C0.702742 4.43306 0.90552 4.22341 1.15097 4.07479L6.20184 1.07598C6.44313 0.93202 6.71887 0.856014 6.99984 0.856014C7.28081 0.856014 7.55655 0.93202 7.79784 1.07598L12.8447 4.07473C13.0502 4.19922 13.2261 4.36707 13.3601 4.56656C13.4941 4.76604 13.5829 4.99237 13.6204 5.22973C13.4525 4.87273 13.0752 4.7746 12.6353 5.02748L7.86053 7.98473C7.26484 8.33167 6.8259 8.7231 6.8249 9.44116V15.3295C6.8249 15.7593 6.99784 16.0374 7.26484 16.1194C7.1774 16.1354 7.08874 16.1439 6.99984 16.1447C6.71896 16.1445 6.44332 16.0686 6.20184 15.9252Z" fill="#2F3A3E"/>
<path d="M11.688 12.0663L10.4326 12.8171C10.4161 12.8237 10.402 12.8349 10.3918 12.8494C10.3815 12.8639 10.3758 12.8811 10.3751 12.8988V13.2288C10.3751 13.2692 10.4023 13.2853 10.4356 13.2661L11.7102 12.4911C11.7255 12.4797 11.7372 12.4641 11.744 12.4462C11.7508 12.4283 11.7523 12.4089 11.7485 12.3902V12.1006C11.7475 12.0632 11.7183 12.0471 11.688 12.0663Z" fill="#3AB14A"/>
<path d="M9.01642 9.30205C9.05679 9.28186 9.09011 9.30205 9.09111 9.35955L9.09511 9.79755C9.24607 9.72896 9.41449 9.70851 9.57748 9.73899C9.60879 9.74711 9.62186 9.78949 9.60979 9.83993L9.51392 10.2244C9.50666 10.2534 9.49167 10.2799 9.47054 10.3011C9.46311 10.3084 9.4546 10.3145 9.44529 10.3192C9.4339 10.3254 9.42075 10.3276 9.40798 10.3254C9.24905 10.2901 9.08267 10.3168 8.94273 10.4C8.84246 10.4452 8.75697 10.5177 8.6961 10.6093C8.63522 10.7009 8.60143 10.8078 8.59861 10.9177C8.59861 11.1196 8.69954 11.1751 9.05173 11.1811C9.51698 11.1892 9.71879 11.3921 9.72386 11.8613C9.71838 12.1033 9.66031 12.3412 9.55365 12.5585C9.447 12.7759 9.29432 12.9674 9.10623 13.1197L9.11436 13.5496C9.114 13.5759 9.10707 13.6017 9.09419 13.6246C9.0813 13.6476 9.06288 13.6669 9.04061 13.6809L8.78636 13.8271C8.74598 13.8473 8.71261 13.8271 8.71167 13.7706V13.3478C8.49367 13.4386 8.27267 13.4598 8.13136 13.4033C8.10511 13.3932 8.09304 13.3539 8.10411 13.3084L8.19598 12.9199C8.20295 12.8892 8.21872 12.8611 8.24136 12.8392C8.24854 12.8323 8.25673 12.8265 8.26561 12.822C8.27211 12.8191 8.27916 12.8176 8.28629 12.8176C8.29343 12.8176 8.30048 12.8191 8.30698 12.822C8.48686 12.8707 8.67873 12.8465 8.84079 12.7544C8.95555 12.6991 9.05298 12.6134 9.12253 12.5067C9.19209 12.4 9.23113 12.2763 9.23542 12.1489C9.23542 11.9309 9.11529 11.8401 8.83173 11.8381C8.46542 11.8381 8.12529 11.7674 8.11823 11.2326C8.12239 11.0018 8.17757 10.7748 8.27982 10.5679C8.38206 10.3609 8.52883 10.1792 8.70961 10.0357L8.69148 9.59568C8.69141 9.56906 8.69814 9.54286 8.71102 9.51956C8.72391 9.49627 8.74252 9.47664 8.76511 9.46255L9.01642 9.30205Z" fill="white"/>
</g>
<defs>
<clipPath id="clip0_133_217">
<rect width="14" height="16" fill="white" transform="translate(0 0.5)"/>
</clipPath>
</defs>
</svg>
