<svg width="14" height="17" viewBox="0 0 14 17" fill="none" xmlns="http://www.w3.org/2000/svg">
<g clip-path="url(#clip0_133_95)">
<path d="M5.76002 0.855597L1.23998 3.55302C0.479992 4.00953 0 4.86025 0 5.77327V11.1889C0 12.102 0.479992 12.9527 1.23998 13.4092L5.76002 16.1067C6.52001 16.5631 7.47999 16.5631 8.23998 16.1067L12.76 13.4092C13.52 12.9527 14 12.1019 14 11.1889V5.79404C14 4.88102 13.52 4.03029 12.76 3.57378L8.23998 0.876363C7.47999 0.378378 6.52001 0.378321 5.76002 0.855597Z" fill="#32BEBE"/>
<path d="M8.52518 4.493C8.55493 4.47393 8.58129 4.49214 8.61361 4.50917C10.3005 5.39739 11.4903 6.97067 11.4613 8.9558C11.4578 9.19444 11.431 9.44255 11.3636 9.66434C11.344 9.72857 11.3279 9.81821 11.2892 9.85169C11.2511 9.8206 11.2539 9.74621 11.2473 9.6968C10.9642 7.56063 8.87627 7.70446 8.36784 9.74202C8.33377 9.74031 8.33284 9.72414 8.30965 9.7048C7.49229 8.95949 5.08768 6.92687 5.92265 5.79552C6.3204 5.31041 6.73832 5.45033 6.85507 5.47637C6.81132 5.41458 6.63742 5.20193 6.63288 5.14474C7.1896 5.27109 7.57679 5.41861 7.90371 5.93532C8.04218 6.15416 8.12612 6.55416 7.98563 6.80976L7.97371 6.80029C7.97256 6.79917 7.97143 6.79804 7.97032 6.79688C7.91492 6.7027 7.80401 6.53237 7.74282 6.43404C7.60435 6.21124 7.61015 6.33396 7.46544 6.52426C7.44619 6.55127 7.30357 6.74865 7.28147 6.75802C7.27218 6.53334 7.25446 6.36885 7.15646 6.20301C6.94066 5.8379 6.32193 5.83819 6.30399 6.33334C6.36934 8.06497 9.8356 8.07932 8.92182 5.33453C8.83465 5.07263 8.76597 4.9259 8.6322 4.69169C8.60513 4.64431 8.52523 4.53992 8.52518 4.493ZM2.53821 9.44488L2.55489 8.95126C2.63019 6.9747 3.26911 5.10627 5.30873 4.5398C5.3544 4.52715 5.45458 4.48834 5.50068 4.49237C5.45808 4.57248 5.36593 4.6842 5.31026 4.77651C3.32702 8.0619 9.29715 9.05958 8.17851 11.6773C7.40042 13.1293 5.86146 12.2048 5.922 11.7925L6.727 11.919C6.765 11.9711 6.62325 12.0597 6.63211 12.105C6.64059 12.1485 6.9143 12.3598 7.18315 12.1916C8.3365 11.4701 7.60637 9.3478 5.51928 9.64091C5.50648 9.62145 5.50183 9.58616 5.49757 9.56324C5.19936 7.96738 3.51296 7.71189 2.66973 9.2202C2.64715 9.26065 2.5655 9.43149 2.53821 9.44482V9.44488Z" fill="white"/>
</g>
<defs>
<clipPath id="clip0_133_95">
<rect width="14" height="16" fill="white" transform="translate(0 0.5)"/>
</clipPath>
</defs>
</svg>
